<svg xmlns="http://www.w3.org/2000/svg" width="1389" height="789"><defs><clipPath id="a"><path fill="#fff" d="M1361 24a28 28 0 110 56 28 28 0 010-56z"/></clipPath></defs><path fill="#91aa59" d="M1 4s691-6 767-3c33 240-22 772-767 788C-1 681 1 4 1 4z"/><path fill="#91aa59" d="M987 181a227 227 0 110 455 227 227 0 010-455zM1232 122a29 29 0 110 59 29 29 0 010-59z" opacity=".6"/><path fill="none" stroke="#91aa59" stroke-miterlimit="50" stroke-width="16" d="M1361 24a28 28 0 110 56 28 28 0 010-56z" clip-path="url(&quot;#a&quot;)" opacity=".6"/></svg>