<svg xmlns="http://www.w3.org/2000/svg" width="905" height="667" viewBox="0 0 905 667"><defs><clipPath id="3pwha"><path fill="#fff" d="M874 58c17.12 0 31 13.88 31 31 0 17.12-13.88 31-31 31-17.12 0-31-13.88-31-31 0-17.12 13.88-31 31-31z"/></clipPath></defs><g><g><path fill="#91aa59" d="M0 7.846s519.76-17.08 593.914-.775C640.496 343.046 558.433 667 0 667 8.103 540.178 0 7.846 0 7.846z"/></g><g opacity=".6"><path fill="#91aa59" d="M779 149c17.673 0 32 14.327 32 32 0 17.673-14.327 32-32 32-17.673 0-32-14.327-32-32 0-17.673 14.327-32 32-32z"/></g><g opacity=".6"><path fill="none" stroke="#91aa59" stroke-miterlimit="50" stroke-width="16" d="M874 58c17.12 0 31 13.88 31 31 0 17.12-13.88 31-31 31-17.12 0-31-13.88-31-31 0-17.12 13.88-31 31-31z" clip-path="url(&quot;#3pwha&quot;)"/></g></g></svg>